<svg width="809" height="168" viewBox="0 0 809 168" fill="none" xmlns="http://www.w3.org/2000/svg">
  <path d="M18.3375 133.479C11.6373 133.479 6.87656 132.181 4.05541 129.585C1.3518 126.87 0 122.917 0 117.724C0 116.19 0.0587739 113.77 0.176322 110.466C0.411418 107.043 0.705288 103.031 1.05793 98.4278C1.41058 93.8251 1.76322 88.8093 2.11586 83.3804C2.58606 77.9515 3.05625 72.4046 3.52644 66.7397C4.11418 59.7766 4.58437 53.8166 4.93702 48.8599C5.40721 43.785 5.75985 39.4773 5.99495 35.9368C6.23005 32.2782 6.40637 29.2687 6.52392 26.9083C6.75901 24.4299 6.87656 22.3056 6.87656 20.5353C6.99411 18.647 7.05288 16.9357 7.05288 15.4015C7.17043 13.8672 7.2292 12.215 7.2292 10.4447C7.2292 9.50052 7.52307 8.85142 8.11081 8.49736C8.69855 8.02529 9.2863 7.78925 9.87404 7.78925C12.9303 7.78925 16.2804 7.73024 19.9244 7.61222C23.5684 7.37618 27.2124 7.14014 30.8564 6.90411C34.5003 6.66807 38.0268 6.49104 41.4357 6.37302C44.8446 6.13698 47.8421 6.01896 50.4281 6.01896C57.9512 6.01896 64.4163 6.96311 69.8235 8.85141C75.2307 10.6217 79.58 13.2771 82.8714 16.8177C86.2803 20.2402 88.7488 24.4299 90.2769 29.3867C91.9226 34.3435 92.7454 40.0084 92.7454 46.3815C92.7454 53.3446 91.805 60.0717 89.9243 66.5627C88.161 72.9357 85.3399 78.6006 81.4608 83.5574C77.5817 88.5142 72.5859 92.4679 66.4734 95.4183C60.3609 98.3688 53.0729 99.8441 44.6095 99.8441C39.5549 99.8441 35.2644 99.313 31.738 98.2508L29.2695 130.824C29.1519 131.768 28.9168 132.476 28.5642 132.948C28.2115 133.302 27.5062 133.479 26.4483 133.479H18.3375ZM46.9017 32.5732C45.3735 32.5732 43.6691 32.6912 41.7883 32.9273C39.9076 33.0453 37.9092 33.2223 35.7934 33.4584C35.5583 38.4152 35.2644 44.4341 34.9118 51.5153C34.5591 58.5964 34.0889 66.0316 33.5012 73.8209C35.2644 74.2929 36.9689 74.647 38.6145 74.883C40.3778 75.0011 41.9647 75.0601 43.3752 75.0601C47.4894 75.0601 50.7808 74.1159 53.2493 72.2276C55.8353 70.2213 57.8336 67.8019 59.2442 64.9694C60.6548 62.137 61.5952 59.1865 62.0654 56.118C62.5356 53.0495 62.7707 50.3941 62.7707 48.1517C62.7707 43.0769 61.5952 39.2413 59.2442 36.6449C57.0108 33.9304 52.8966 32.5732 46.9017 32.5732Z" fill="#57CC05"/>
  <path d="M95.5721 111.705C95.5721 101.083 100.333 92.7629 109.854 86.7439C119.376 80.725 133.423 77.4795 151.995 77.0074C152.113 75.7092 152.171 74.647 152.171 73.8209C152.289 72.8767 152.348 71.7555 152.348 70.4573C152.348 66.6807 151.642 63.6712 150.232 61.4289C148.821 59.1865 145.883 58.0653 141.416 58.0653C138.947 58.0653 136.949 58.4194 135.421 59.1275C133.893 59.8356 132.658 60.8388 131.718 62.137C130.778 63.3172 130.014 64.7924 129.426 66.5627C128.838 68.333 128.309 70.2803 127.839 72.4046C127.604 73.4668 127.075 74.1749 126.252 74.529C125.429 74.765 124.136 74.883 122.373 74.883C110.383 74.883 104.388 70.3393 104.388 61.2518C104.388 57.5933 105.211 54.1117 106.857 50.8072C108.62 47.5026 111.147 44.6702 114.439 42.3098C117.847 39.8314 122.079 37.8841 127.134 36.4679C132.188 35.0516 138.066 34.3435 144.766 34.3435C157.814 34.3435 167.276 37.058 173.154 42.4868C179.031 47.9157 181.97 55.5869 181.97 65.5005C181.97 66.7987 181.794 69.1591 181.441 72.5817C181.206 75.8862 180.853 79.4268 180.383 83.2034C180.03 86.862 179.678 90.3435 179.325 93.6481C179.09 96.9526 178.972 99.254 178.972 100.552C178.972 103.503 179.501 105.627 180.559 106.925C181.617 108.105 182.793 108.932 184.086 109.404C185.496 109.876 186.731 110.23 187.789 110.466C188.846 110.702 189.375 111.292 189.375 112.236C189.375 114.832 189.023 117.488 188.317 120.202C187.612 122.917 186.437 125.395 184.791 127.638C183.263 129.88 181.088 131.709 178.267 133.125C175.564 134.542 172.213 135.25 168.217 135.25C162.574 135.25 158.343 133.893 155.522 131.178C152.7 128.464 150.82 124.687 149.879 119.848C147.058 123.979 143.355 127.579 138.771 130.647C134.304 133.716 128.427 135.25 121.139 135.25C117.612 135.25 114.262 134.837 111.088 134.011C108.032 133.184 105.329 131.827 102.978 129.939C100.744 128.051 98.9222 125.631 97.5116 122.681C96.2186 119.612 95.5721 115.954 95.5721 111.705ZM150.408 91.5237C147.352 91.5237 144.354 91.7598 141.416 92.2318C138.477 92.7039 135.832 93.471 133.481 94.5332C131.248 95.4773 129.426 96.7756 128.015 98.4278C126.605 100.08 125.899 102.086 125.899 104.447C125.899 107.161 126.722 109.05 128.368 110.112C130.131 111.174 132.012 111.705 134.01 111.705C135.891 111.705 137.772 111.292 139.653 110.466C141.533 109.64 143.179 108.4 144.59 106.748C146.118 104.978 147.411 102.854 148.469 100.375C149.527 97.8967 150.173 94.9463 150.408 91.5237Z" fill="#57CC05"/>
  <path d="M220.668 135.073C213.38 135.073 208.15 133.125 204.976 129.231C201.802 125.336 200.215 118.904 200.215 109.935C200.215 108.518 200.274 106.748 200.391 104.624C200.626 102.499 200.862 99.785 201.097 96.4805C201.449 93.058 201.861 88.8683 202.331 83.9115C202.801 78.9547 203.271 72.9357 203.742 65.8546C204.329 58.7734 204.917 50.4531 205.505 40.8936C206.21 31.334 206.915 20.2402 207.621 7.61222C207.738 5.0158 208.032 3.48155 208.502 3.00948C208.855 2.65542 209.795 2.4784 211.323 2.4784H218.2C221.726 2.4784 224.665 2.89146 227.016 3.71759C229.367 4.54373 231.248 5.66491 232.658 7.08113C234.069 8.49736 235.068 10.1496 235.656 12.0379C236.244 13.8082 236.537 15.6965 236.537 17.7028C236.537 20.0632 236.361 23.4858 236.008 27.9705C235.773 32.3372 235.421 37.294 234.951 42.8409C234.48 48.3878 234.01 54.1707 233.54 60.1897C233.07 66.2086 232.6 71.9916 232.129 77.5385C231.659 82.9673 231.248 87.8651 230.895 92.2318C230.66 96.5985 230.542 99.9031 230.542 102.145C230.542 105.214 231.071 107.397 232.129 108.695C233.305 109.994 234.539 110.938 235.832 111.528C237.125 112 238.301 112.354 239.359 112.59C240.534 112.708 241.122 113.062 241.122 113.652C241.122 116.249 240.828 118.845 240.24 121.442C239.652 123.92 238.595 126.221 237.066 128.346C235.538 130.352 233.422 132.004 230.719 133.302C228.133 134.483 224.783 135.073 220.668 135.073Z" fill="#57CC05"/>
  <path d="M314.429 34.3435C325.479 34.3435 333.766 37.7661 339.29 44.6112C344.933 51.4563 347.754 62.255 347.754 77.0074C347.754 86.2129 346.696 94.4152 344.58 101.614C342.464 108.813 339.526 114.95 335.764 120.025C332.002 124.982 327.594 128.759 322.54 131.355C317.485 133.952 312.019 135.25 306.142 135.25C299.912 135.25 295.034 133.893 291.507 131.178C287.981 128.464 285.218 124.628 283.22 119.671C282.867 123.92 282.574 127.165 282.338 129.408C282.103 131.65 281.927 133.42 281.809 134.719C281.692 136.135 281.574 137.374 281.457 138.436C281.457 139.498 281.339 140.915 281.104 142.685C280.987 144.455 280.81 146.875 280.575 149.943C280.34 153.012 279.987 157.26 279.517 162.689C279.4 164.105 279.106 165.05 278.636 165.522C278.165 165.994 277.166 166.23 275.638 166.23H269.291C265.647 166.23 262.649 165.817 260.298 164.991C258.065 164.282 256.243 163.22 254.832 161.804C253.539 160.388 252.599 158.617 252.011 156.493C251.541 154.487 251.306 152.126 251.306 149.412C251.306 148.232 251.482 145.045 251.835 139.852C252.187 134.66 252.599 128.464 253.069 121.264C253.657 113.947 254.244 106.099 254.832 97.7197C255.537 89.3404 256.184 81.3741 256.772 73.8209C257.359 66.1496 257.83 59.3635 258.182 53.4626C258.653 47.5616 259.005 43.49 259.24 41.2476C259.358 38.6512 259.652 37.117 260.122 36.6449C260.475 36.2908 261.415 36.1138 262.943 36.1138H269.82C276.167 36.1138 280.752 37.471 283.573 40.1855C286.511 42.7819 287.981 45.9094 287.981 49.568C290.684 44.1391 294.152 40.2445 298.384 37.8841C302.733 35.5237 308.081 34.3435 314.429 34.3435ZM301.558 57.8883C295.563 57.8883 291.155 60.4847 288.333 65.6776C285.512 70.8704 284.102 77.9515 284.102 86.921C284.102 89.9895 284.278 92.9989 284.631 95.9494C285.101 98.8999 285.865 101.555 286.923 103.916C287.981 106.276 289.391 108.164 291.155 109.581C293.035 110.997 295.386 111.705 298.207 111.705C303.262 111.705 307.494 109.227 310.903 104.27C314.312 99.313 316.016 91.5237 316.016 80.902C316.016 77.9515 315.781 75.1191 315.311 72.4046C314.958 69.5722 314.253 67.0938 313.195 64.9694C312.137 62.8451 310.668 61.1338 308.787 59.8356C306.906 58.5374 304.496 57.8883 301.558 57.8883Z" fill="#57CC05"/>
  <path d="M356.095 111.705C356.095 101.083 360.855 92.7629 370.377 86.7439C379.898 80.725 393.945 77.4795 412.518 77.0074C412.635 75.7092 412.694 74.647 412.694 73.8209C412.812 72.8767 412.87 71.7555 412.87 70.4573C412.87 66.6807 412.165 63.6712 410.755 61.4289C409.344 59.1865 406.405 58.0653 401.939 58.0653C399.47 58.0653 397.472 58.4194 395.944 59.1275C394.415 59.8356 393.181 60.8388 392.241 62.137C391.3 63.3172 390.536 64.7924 389.949 66.5627C389.361 68.333 388.832 70.2803 388.362 72.4046C388.127 73.4668 387.598 74.1749 386.775 74.529C385.952 74.765 384.659 74.883 382.896 74.883C370.906 74.883 364.911 70.3393 364.911 61.2518C364.911 57.5933 365.734 54.1117 367.379 50.8072C369.143 47.5026 371.67 44.6702 374.961 42.3098C378.37 39.8314 382.602 37.8841 387.656 36.4679C392.711 35.0516 398.588 34.3435 405.289 34.3435C418.336 34.3435 427.799 37.058 433.677 42.4868C439.554 47.9157 442.493 55.5869 442.493 65.5005C442.493 66.7987 442.316 69.1591 441.964 72.5817C441.729 75.8862 441.376 79.4268 440.906 83.2034C440.553 86.862 440.2 90.3435 439.848 93.6481C439.613 96.9526 439.495 99.254 439.495 100.552C439.495 103.503 440.024 105.627 441.082 106.925C442.14 108.105 443.315 108.932 444.608 109.404C446.019 109.876 447.253 110.23 448.311 110.466C449.369 110.702 449.898 111.292 449.898 112.236C449.898 114.832 449.545 117.488 448.84 120.202C448.135 122.917 446.959 125.395 445.314 127.638C443.786 129.88 441.611 131.709 438.79 133.125C436.086 134.542 432.736 135.25 428.739 135.25C423.097 135.25 418.865 133.893 416.044 131.178C413.223 128.464 411.342 124.687 410.402 119.848C407.581 123.979 403.878 127.579 399.294 130.647C394.827 133.716 388.949 135.25 381.661 135.25C378.135 135.25 374.785 134.837 371.611 134.011C368.555 133.184 365.851 131.827 363.5 129.939C361.267 128.051 359.445 125.631 358.034 122.681C356.741 119.612 356.095 115.954 356.095 111.705ZM410.931 91.5237C407.875 91.5237 404.877 91.7598 401.939 92.2318C399 92.7039 396.355 93.471 394.004 94.5332C391.771 95.4773 389.949 96.7756 388.538 98.4278C387.127 100.08 386.422 102.086 386.422 104.447C386.422 107.161 387.245 109.05 388.891 110.112C390.654 111.174 392.535 111.705 394.533 111.705C396.414 111.705 398.295 111.292 400.175 110.466C402.056 109.64 403.702 108.4 405.112 106.748C406.64 104.978 407.933 102.854 408.991 100.375C410.049 97.8967 410.696 94.9463 410.931 91.5237Z" fill="#57CC05"/>
  <path d="M518.395 112.59C515.456 117.901 511.871 121.855 507.639 124.451C503.408 126.929 498.118 128.169 491.77 128.169C486.951 128.169 482.543 127.401 478.546 125.867C474.55 124.333 471.141 121.914 468.32 118.609C465.498 115.305 463.265 111.174 461.619 106.217C460.091 101.142 459.327 95.1233 459.327 88.1602C459.327 82.4953 459.915 76.5353 461.09 70.2803C462.266 63.9073 464.382 58.0653 467.438 52.7545C470.612 47.4436 474.902 43.0769 480.31 39.6544C485.717 36.1138 492.652 34.3435 501.116 34.3435C504.642 34.3435 507.639 34.7566 510.108 35.5827C512.694 36.2908 514.869 37.294 516.632 38.5922C518.513 39.8904 519.982 41.4247 521.04 43.1949C522.215 44.9652 523.097 46.8535 523.685 48.8599C523.685 48.9779 523.685 48.5648 523.685 47.6207C523.802 46.5585 523.92 45.3783 524.037 44.0801C524.155 42.7819 524.214 41.5427 524.214 40.3625C524.331 39.0643 524.39 38.2381 524.39 37.8841C524.508 36.7039 525.272 36.1138 526.682 36.1138H534.793C540.906 36.1138 545.314 37.412 548.017 40.0084C550.838 42.4868 552.249 47.2666 552.249 54.3477C552.249 55.2919 552.19 57.4752 552.073 60.8978C551.955 64.2023 551.72 68.215 551.367 72.9357C551.132 77.6565 550.78 82.9083 550.309 88.6913C549.839 94.3562 549.31 100.08 548.723 105.863C548.135 111.646 547.488 117.193 546.783 122.504C546.078 127.815 545.314 132.476 544.491 136.489C543.668 140.502 542.257 144.396 540.259 148.173C538.261 151.949 535.44 155.313 531.796 158.263C528.152 161.214 523.45 163.574 517.69 165.345C512.047 167.115 505.112 168 496.884 168C490.654 168 485.188 167.41 480.486 166.23C475.901 165.05 472.081 163.456 469.025 161.45C465.969 159.562 463.618 157.378 461.972 154.9C460.444 152.422 459.68 149.943 459.68 147.465C459.68 145.222 460.15 143.275 461.09 141.623C462.031 139.971 463.265 138.613 464.793 137.551C466.321 136.489 467.967 135.663 469.73 135.073C471.611 134.601 473.374 134.365 475.02 134.365C477.018 134.365 478.488 134.955 479.428 136.135C480.368 137.315 481.426 138.613 482.602 140.03C483.777 141.564 485.423 142.921 487.539 144.101C489.655 145.281 492.946 145.871 497.413 145.871C505.171 145.871 510.578 142.98 513.634 137.197C516.808 131.532 518.395 123.33 518.395 112.59ZM503.584 104.624C507.816 104.624 511.107 103.621 513.458 101.614C515.927 99.608 517.807 97.1886 519.1 94.3562C520.393 91.5237 521.216 88.5732 521.569 85.5047C521.922 82.4362 522.098 79.7808 522.098 77.5385C522.098 70.4573 520.981 65.4415 518.748 62.491C516.632 59.4226 513.399 57.8883 509.05 57.8883C504.701 57.8883 501.292 59.0685 498.823 61.4289C496.355 63.7893 494.474 66.6217 493.181 69.9262C492.006 73.1128 491.242 76.3583 490.889 79.6628C490.536 82.8493 490.36 85.3277 490.36 87.098C490.36 92.9989 491.359 97.4247 493.357 100.375C495.356 103.208 498.765 104.624 503.584 104.624Z" fill="#57CC05"/>
  <path d="M562.55 111.705C562.55 101.083 567.311 92.7629 576.832 86.7439C586.353 80.725 600.4 77.4795 618.973 77.0074C619.091 75.7092 619.149 74.647 619.149 73.8209C619.267 72.8767 619.326 71.7555 619.326 70.4573C619.326 66.6807 618.62 63.6712 617.21 61.4289C615.799 59.1865 612.861 58.0653 608.394 58.0653C605.925 58.0653 603.927 58.4194 602.399 59.1275C600.871 59.8356 599.636 60.8388 598.696 62.137C597.756 63.3172 596.992 64.7924 596.404 66.5627C595.816 68.333 595.287 70.2803 594.817 72.4046C594.582 73.4668 594.053 74.1749 593.23 74.529C592.407 74.765 591.114 74.883 589.351 74.883C577.361 74.883 571.366 70.3393 571.366 61.2518C571.366 57.5933 572.189 54.1117 573.835 50.8072C575.598 47.5026 578.125 44.6702 581.416 42.3098C584.825 39.8314 589.057 37.8841 594.112 36.4679C599.166 35.0516 605.044 34.3435 611.744 34.3435C624.792 34.3435 634.254 37.058 640.132 42.4868C646.009 47.9157 648.948 55.5869 648.948 65.5005C648.948 66.7987 648.771 69.1591 648.419 72.5817C648.184 75.8862 647.831 79.4268 647.361 83.2034C647.008 86.862 646.656 90.3435 646.303 93.6481C646.068 96.9526 645.95 99.254 645.95 100.552C645.95 103.503 646.479 105.627 647.537 106.925C648.595 108.105 649.771 108.932 651.064 109.404C652.474 109.876 653.709 110.23 654.766 110.466C655.824 110.702 656.353 111.292 656.353 112.236C656.353 114.832 656.001 117.488 655.295 120.202C654.59 122.917 653.415 125.395 651.769 127.638C650.241 129.88 648.066 131.709 645.245 133.125C642.541 134.542 639.191 135.25 635.195 135.25C629.552 135.25 625.321 133.893 622.499 131.178C619.678 128.464 617.798 124.687 616.857 119.848C614.036 123.979 610.333 127.579 605.749 130.647C601.282 133.716 595.405 135.25 588.117 135.25C584.59 135.25 581.24 134.837 578.066 134.011C575.01 133.184 572.307 131.827 569.956 129.939C567.722 128.051 565.9 125.631 564.49 122.681C563.197 119.612 562.55 115.954 562.55 111.705ZM617.386 91.5237C614.33 91.5237 611.332 91.7598 608.394 92.2318C605.455 92.7039 602.81 93.471 600.459 94.5332C598.226 95.4773 596.404 96.7756 594.993 98.4278C593.583 100.08 592.877 102.086 592.877 104.447C592.877 107.161 593.7 109.05 595.346 110.112C597.109 111.174 598.99 111.705 600.988 111.705C602.869 111.705 604.75 111.292 606.631 110.466C608.511 109.64 610.157 108.4 611.568 106.748C613.096 104.978 614.389 102.854 615.447 100.375C616.505 97.8967 617.151 94.9463 617.386 91.5237Z" fill="#57CC05"/>
  <path d="M685.354 133.479C681.71 133.479 678.713 133.125 676.362 132.417C674.128 131.591 672.306 130.47 670.896 129.054C669.603 127.638 668.662 125.926 668.075 123.92C667.604 121.796 667.369 119.376 667.369 116.662C667.369 114.891 667.428 112.413 667.546 109.227C667.781 105.922 668.133 101.437 668.604 95.7724C669.074 89.9895 669.603 82.7313 670.19 73.9979C670.896 65.1465 671.719 54.2297 672.659 41.2476C672.777 38.6512 673.07 37.117 673.541 36.6449C673.893 36.2908 674.834 36.1138 676.362 36.1138H683.238C686.882 36.1138 689.821 36.4679 692.054 37.176C694.405 37.8841 696.227 38.9463 697.52 40.3625C698.931 41.7787 699.871 43.49 700.342 45.4963C700.929 47.5026 701.223 49.745 701.223 52.2234C701.223 53.9937 701.106 56.6491 700.871 60.1897C700.635 63.7302 700.283 68.569 699.813 74.706C699.46 80.725 698.931 88.2782 698.226 97.3657C697.52 106.335 696.639 117.193 695.581 129.939C695.463 131.355 695.169 132.299 694.699 132.771C694.229 133.243 693.23 133.479 691.702 133.479H685.354ZM672.835 15.2244C672.835 10.5037 674.54 6.78609 677.949 4.07165C681.358 1.35722 685.942 0 691.702 0C696.756 0 700.4 1.06217 702.634 3.1865C704.985 5.19283 706.16 7.90726 706.16 11.3298C706.16 15.6965 704.515 19.3551 701.223 22.3056C698.049 25.138 693.347 26.5543 687.117 26.5543C677.596 26.5543 672.835 22.7777 672.835 15.2244Z" fill="#57CC05"/>
  <path d="M756.28 135.25C748.169 135.25 741.41 134.129 736.003 131.886C730.713 129.526 726.481 126.339 723.307 122.327C720.134 118.314 717.9 113.652 716.607 108.341C715.314 102.913 714.668 97.1296 714.668 90.9926C714.668 83.9115 715.491 77.0074 717.136 70.2803C718.899 63.4352 721.838 57.3572 725.952 52.0464C730.066 46.7355 735.474 42.4868 742.174 39.3003C748.992 35.9958 757.455 34.3435 767.564 34.3435C782.375 34.3435 792.955 38.0021 799.302 45.3193C805.767 52.5184 809 62.6681 809 75.7682C809 79.4268 808.706 83.4984 808.118 87.9831C807.648 92.3498 806.649 96.7165 805.121 101.083C803.71 105.45 801.712 109.699 799.126 113.829C796.657 117.96 793.484 121.619 789.605 124.805C785.725 127.992 781.024 130.529 775.499 132.417C770.092 134.306 763.685 135.25 756.28 135.25ZM764.567 57.8883C760.1 57.8883 756.515 59.0685 753.811 61.4289C751.225 63.6712 749.227 66.4447 747.816 69.7492C746.523 72.9357 745.642 76.3583 745.171 80.0169C744.819 83.5574 744.643 86.5669 744.643 89.0453C744.643 96.8346 745.877 102.558 748.345 106.217C750.814 109.876 754.34 111.705 758.925 111.705C763.039 111.705 766.389 110.407 768.975 107.81C771.678 105.214 773.736 102.086 775.146 98.4278C776.674 94.7692 777.673 90.9336 778.144 86.921C778.731 82.9083 779.025 79.5448 779.025 76.8303C779.025 70.9294 777.909 66.3267 775.675 63.0221C773.559 59.5996 769.857 57.8883 764.567 57.8883Z" fill="#57CC05"/>
</svg>
