<svg width="446" height="446" viewBox="0 0 446 446" fill="none" xmlns="http://www.w3.org/2000/svg">
  <path d="M331.179 116.245L330.84 114.208L321.446 114.66L317.372 116.245L310.129 121.904L302.772 132.768L294.737 137.748L291.002 151.555L298.811 171.361L302.772 172.04C316.353 172.312 324.502 167.928 326.878 165.702C327.059 166.064 327.105 171.135 327.105 173.625C326.652 179.872 324.502 183.697 323.483 184.829C322.487 186.096 322.917 186.187 323.257 186.074C342.904 175.39 344.571 149.405 342.949 137.748L331.179 116.245Z" fill="#254336"/>
  <path d="M275.61 74.7098L280.816 79.1236L267.122 76.4074L244.94 77.426C246.66 75.6152 250.221 73.0499 251.504 72.6726C258.385 67.6929 271.046 72.2954 275.61 74.7098Z" fill="#335824"/>
  <path d="M259.653 93.0442L267.122 76.4075C253.617 76.068 195.483 81.274 195.483 81.274L144.214 79.1237L173.753 112.284L196.162 125.752L228.742 138.427L232.604 111.039L259.653 93.0442Z" fill="#CDEFB4"/>
  <path d="M102 417.856L138.103 341.496L154.966 335.446L142.403 397.414L129.162 405.407L102 417.856Z" fill="#CDEFB4"/>
  <path d="M182.354 325.619L182.983 325.166L197.633 326.716L167.412 375.189L160.285 386.62L139.348 412.877L142.403 397.414L154.966 335.446L182.354 325.619Z" fill="#66B26C"/>
  <path d="M197.633 326.716L167.412 375.189L173.64 403.257L189.597 365.405L205.555 327.554L197.633 326.716Z" fill="#CDEFB4"/>
  <path d="M272.215 260.883C272.215 260.883 270.291 220.177 268.706 212.67L240.865 188.451L222.644 181.662L206.8 175.209L228.741 138.427L232.604 111.039L259.652 93.0442L267.122 76.4075C267.122 76.4075 273.126 77.5721 280.477 79.0496C281.944 79.3446 283.466 79.6521 285.004 79.9653C292.628 81.5178 300.66 83.2103 304.583 84.2165L325.86 98.7029L331.971 113.868L331.066 116.132L330.839 114.208L321.446 114.547L314.316 119.753L306.96 129.147L302.998 135.258L297.453 146.01V158.686L298.811 171.361C298.811 171.361 301.98 171.965 302.772 171.927L297.453 187.092L300.395 213.575L301.414 228.515L297.906 268.352L274.139 300.154L237.131 322.223L217.212 328.787L205.555 327.554L197.633 326.716L182.982 325.166L272.215 260.883Z" fill="#CDEFB4"/>
  <path d="M272.215 260.883C272.215 260.883 270.291 220.177 268.707 212.67L240.866 188.451L223.097 181.208L206.574 174.757L177.375 193.317L129.162 250.018L114.223 350.064L138.103 341.496L182.354 325.619L182.983 325.166L272.215 260.883Z" fill="#57CC05"/>
  <path d="M264.519 68.259C273.483 68.9833 281.382 75.8794 284.212 79.2369L285.004 79.9653C283.466 79.6522 281.944 79.3447 280.477 79.0497L274.592 74.7099C256.73 65.8507 241.305 77.9925 232.604 93.6101C228.711 100.22 227.511 104.89 227.398 106.399C227.398 107.214 227.021 107.87 226.832 108.097C226.651 108.278 223.361 108.323 221.739 108.323L221.06 110.813L229.661 111.039C240.345 111.039 248.071 119.64 250.599 123.941C258.385 134.987 256.559 150.122 254.673 156.309C250.055 172.878 236.754 178.831 230.68 179.736C216.827 181.728 207.479 176.567 204.536 173.738C198.923 169.845 194.653 160.496 193.219 156.309C189.416 145.082 192.993 132.995 195.256 128.355C197.791 119.935 205.97 114.661 209.743 113.076C209.652 112.533 210.837 108.398 211.44 106.399L208.271 102.777L208.498 101.985C217.665 78.2183 233.849 70.6356 236.452 69.8434C239.055 69.0512 253.315 67.3536 264.519 68.259Z" fill="#57CC05"/>
  <path fill-rule="evenodd" clip-rule="evenodd" d="M276.277 114.718C274.68 116.168 273.264 117.98 272.202 119.686L269.512 118.01C270.694 116.113 272.289 114.059 274.147 112.372C275.988 110.7 278.207 109.281 280.639 108.869C283.169 108.439 285.743 109.134 288.067 111.337C290.324 113.478 292.315 117.002 293.982 122.213L290.964 123.179C289.372 118.204 287.592 115.254 285.887 113.637C284.248 112.084 282.667 111.739 281.169 111.993C279.573 112.264 277.891 113.252 276.277 114.718Z" fill="#254336"/>
  <path fill-rule="evenodd" clip-rule="evenodd" d="M259.313 316.791L258.861 315.999C254.515 316.451 250.335 315.81 248.788 315.433L248.335 315.546L236.905 322.336L227.738 325.392C227.556 327.746 228.266 329.844 228.643 330.598C228.945 331.051 230.046 332.318 232.038 333.767C234.03 335.216 233.698 334.22 233.283 333.541C233.102 332.816 233.359 332.183 233.509 331.956C234.053 331.775 234.339 330.749 234.415 330.259C236.588 331.164 239.47 330.862 240.639 330.598C241.658 331.277 244.601 335.578 244.714 340.558C244.804 344.541 243.62 346.895 243.016 347.574C240.481 350.834 242.337 349.536 243.582 348.48C244.85 347.303 245.695 346.103 245.959 345.65C249.58 338.769 247.996 332.522 246.751 330.259C247.656 330.259 248.637 330.334 249.014 330.372C255.443 331.096 258.785 336.861 259.653 339.652C260.196 344.27 259.653 346.556 259.313 347.122C257.722 349.928 259.254 348.065 260.219 346.782C261.758 343.975 261.841 339.35 261.69 337.389C260.694 332.318 258.559 329.165 257.616 328.222C259.879 326.049 263.765 325.958 265.425 326.184C268.503 326.637 270.706 329.165 271.423 330.372C273.234 332.183 273.008 335.125 272.668 336.37C272.396 338 272.932 337.276 273.234 336.71C274.049 334.899 274.026 332.484 273.913 331.504C273.279 326.886 270.027 323.921 268.481 323.016C267.122 322.02 269.197 322.148 270.404 322.336C273.994 323.683 274.804 324.695 276.581 326.917L276.629 326.977C278.078 328.787 277.761 331.428 277.421 332.522C276.606 334.582 277.157 333.984 277.535 333.428C278.53 331.798 278.553 328.825 278.44 327.542C277.693 323.948 276.118 321.662 274.358 320.186C278.154 318.544 281.604 320.935 282.854 322.336C284.665 323.423 285.721 326.26 286.023 327.542C286.294 329.987 285.985 331.126 285.796 331.39C284.619 333.02 285.457 332.447 286.023 331.956C286.385 331.504 286.702 330.636 286.815 330.259C287.177 326.365 286.438 323.581 286.023 322.676C283.759 317.515 279.572 315.697 277.761 315.433C274.592 314.708 269.65 316.414 267.575 317.357C265.674 316.995 261.275 316.829 259.313 316.791ZM247.317 321.997H254.786C254.183 322.789 252.409 324.419 250.146 324.6C248.863 324.638 246.207 324.555 245.845 323.921C245.845 323.468 246.14 322.45 247.317 321.997Z" fill="#254336"/>
</svg>
